<svg width="19" height="19" viewBox="0 0 19 19" fill="none" xmlns="http://www.w3.org/2000/svg">
<path id="Combined Shape" fill-rule="evenodd" clip-rule="evenodd" d="M3.98387 0H15.0161C17.2226 0 19 1.77658 19 3.982V15.0091C19 17.2145 17.2226 18.9911 15.0161 18.9911H8.27419C7.75323 18.9911 7.35484 18.5929 7.35484 18.0722C7.35484 17.5514 7.75323 17.1532 8.27419 17.1532H15.0161C16.2113 17.1532 17.1613 16.2037 17.1613 15.0091V3.982C17.1613 2.7874 16.2113 1.83784 15.0161 1.83784H3.98387C2.78871 1.83784 1.83871 2.7874 1.83871 3.982V10.7208C1.83871 11.2415 1.44032 11.6397 0.919355 11.6397C0.398388 11.6397 0 11.2415 0 10.7208V3.982C0 1.77658 1.77742 0 3.98387 0ZM11.8843 8.09544V13.7009C11.8536 14.191 11.4552 14.6198 10.9649 14.6198C10.4439 14.6198 10.0456 14.2216 10.0456 13.7009V10.3009L1.58749 18.7243C1.2504 19.0919 0.668137 19.0919 0.300395 18.7243C-0.0673467 18.3874 -0.0673467 17.8054 0.300395 17.4378L8.72781 8.98374H5.3262C4.80523 8.98374 4.40685 8.58554 4.40685 8.06481C4.40685 7.54409 4.80523 7.14589 5.3262 7.14589H10.9343C10.9649 7.14589 10.9956 7.15355 11.0262 7.1612C11.0568 7.16886 11.0875 7.17652 11.1181 7.17652L11.2101 7.20715C11.2714 7.20715 11.3327 7.23778 11.3939 7.32967L11.4552 7.3603C11.5472 7.42157 11.6391 7.51346 11.7004 7.60535C11.7004 7.60535 11.731 7.63598 11.731 7.66661C11.7617 7.69724 11.7923 7.72787 11.7923 7.7585C11.7923 7.77382 11.8 7.78913 11.8077 7.80445C11.8153 7.81977 11.823 7.83508 11.823 7.8504C11.8536 7.8504 11.8536 7.88103 11.8536 7.91166C11.8843 7.97292 11.8843 8.03418 11.8843 8.09544Z" fill="#e84118"/>
</svg>
